<svg width="64" height="40" viewBox="0 0 64 40" fill="none" xmlns="http://www.w3.org/2000/svg">
<path d="M63.6275 0V7.07396H57.4538V40H48.9651C47.7647 37.7278 46.0712 35.7771 43.8847 34.1479C41.7411 32.4759 39.6618 31.104 37.6468 30.0322L41.3767 24.5659C43.0058 25.5091 44.4849 26.5166 45.814 27.5884C47.1859 28.6174 48.3006 29.6249 49.158 30.6109C49.1152 30.1393 49.0723 29.6677 49.0294 29.1961C49.0294 28.7245 49.008 28.2315 48.9651 27.717C48.9651 27.1597 48.9651 26.6024 48.9651 26.045V7.07396H0.60498V0H63.6275ZM26.8429 34.7267C23.3274 34.7267 20.0262 34.0407 16.9394 32.6688C13.8954 31.2969 11.1302 28.9818 8.64357 25.7235C6.19984 22.4652 4.05621 18.0493 2.2127 12.4759L10.2513 10.2251C11.6232 14.2122 13.0594 17.4705 14.56 20C16.0605 22.5295 17.7754 24.3944 19.7047 25.5949C21.6339 26.7524 23.8847 27.3312 26.4571 27.3312C28.4721 27.3312 30.1227 27.074 31.4088 26.5595C32.7379 26.045 33.7239 25.2947 34.367 24.3087C35.0101 23.3226 35.3317 22.1651 35.3317 20.836C35.3317 19.2069 34.8815 17.9421 33.9812 17.0418C33.1237 16.0986 32.0091 15.627 30.6371 15.627C29.6939 15.627 28.9651 15.8628 28.4506 16.3344C27.9362 16.806 27.6789 17.4277 27.6789 18.1994C27.6789 18.5423 27.7218 18.9282 27.8076 19.3569C27.8933 19.7428 28.0005 20.1072 28.1291 20.4502L20.1548 21.6077C19.8118 20.7931 19.5546 20 19.3831 19.2283C19.2116 18.4566 19.1259 17.7921 19.1259 17.2347C19.1259 15.134 19.6189 13.4834 20.605 12.283C21.591 11.0397 22.8772 10.1393 24.4635 9.58199C26.0927 9.02465 27.7861 8.74598 29.5439 8.74598C32.5021 8.74598 35.053 9.32476 37.1966 10.4823C39.3402 11.597 40.9694 13.1404 42.0841 15.1125C43.2416 17.0847 43.8204 19.314 43.8204 21.8006C43.8204 24.1158 43.2416 26.2594 42.0841 28.2315C40.9265 30.2036 39.083 31.7899 36.5535 32.9904C34.0669 34.1479 30.8301 34.7267 26.8429 34.7267ZM22.7915 12.4759C22.62 11.0611 21.9983 9.83923 20.9265 8.81029C19.8547 7.78135 18.3113 7.03108 16.2963 6.55948L21.1194 3.72991L24.0776 4.4373C26.4785 5.42337 28.2148 6.51661 29.2867 7.71704C30.3585 8.91747 31.0016 10.4394 31.2159 12.283L22.7915 12.4759Z" fill="#406836"/>
</svg>
