<svg width="61" height="40" viewBox="0 0 61 40" fill="none" xmlns="http://www.w3.org/2000/svg">
<path d="M21.5658 33.5655C19.6642 33.5655 17.7847 33.2781 15.9273 32.7032C14.0699 32.1282 12.301 31.1553 10.6205 29.7844C8.94002 28.3693 7.34798 26.4677 5.84439 24.0796L7.37009 18.2421C9.71393 17.8883 11.5713 17.2471 12.9422 16.3184C14.3574 15.3897 15.0649 13.9303 15.0649 11.9403C15.0649 10.4367 14.5343 9.30901 13.4729 8.55721C12.4115 7.76119 10.9301 7.36319 9.02847 7.36319C8.05555 7.36319 7.0163 7.47374 5.91072 7.69486C4.84936 7.87175 3.74378 8.20343 2.59397 8.68988L0.0732422 2.05639C1.53261 1.43726 3.08043 0.950802 4.71669 0.597015C6.39718 0.199005 8.12189 0 9.89082 0C12.8096 0 15.2861 0.486457 17.3203 1.45937C19.3988 2.43228 20.9688 3.82532 22.0301 5.63848C23.1357 7.40741 23.6885 9.53013 23.6885 12.0066C23.6885 14.7485 22.9588 17.1365 21.4994 19.1708C20.0401 21.2051 18.05 22.775 15.5293 23.8806C13.0086 24.9862 10.1562 25.539 6.97208 25.539C5.55693 25.539 4.34079 25.3179 3.32366 24.8756C2.30652 24.4334 1.53261 23.7922 1.00193 22.9519C0.471252 22.1117 0.205912 21.1388 0.205912 20.0332C0.205912 18.6622 0.670257 17.5345 1.59895 16.6501C2.57186 15.7656 3.89856 15.3234 5.57905 15.3234C6.99419 15.3234 8.29878 15.6108 9.49281 16.1857C10.6868 16.7164 11.8588 17.6672 13.0086 19.0381L13.3402 21.4262C14.6227 23.372 15.9273 24.6545 17.254 25.2736C18.6249 25.8485 19.9958 26.136 21.3668 26.136C23.003 26.136 24.3297 25.937 25.3469 25.539C26.4082 25.141 27.2927 24.5218 28.0003 23.6816C29.1501 22.3107 29.8798 20.785 30.1893 19.1045C30.4989 17.424 30.6537 15.3676 30.6537 12.9353V10.2819L39.5426 11.0116V16.2521C39.5426 19.613 38.9013 22.5981 37.6188 25.2073C36.3806 27.8165 34.4348 29.8729 31.7814 31.3765C29.1722 32.8358 25.767 33.5655 21.5658 33.5655ZM42.196 26.4677C41.0019 26.4677 39.7858 26.2244 38.5475 25.738C37.3535 25.2073 36.2479 24.1902 35.2308 22.6866C34.2136 21.183 33.3955 18.9276 32.7764 15.9204L38.5475 14.1957C38.7687 15.7435 39.1446 16.9154 39.6752 17.7114C40.2501 18.5075 41.1125 18.9055 42.2623 18.9055C43.3237 18.9055 44.3629 18.618 45.38 18.0431C46.3972 17.424 47.4143 16.4069 48.4314 14.9917L49.4928 23.0846C48.8295 23.8806 47.9229 24.6545 46.7731 25.4063C45.6675 26.1139 44.1418 26.4677 42.196 26.4677ZM58.1827 40C55.4851 40 53.4066 39.7125 51.9472 39.1376C50.4878 38.5185 49.3823 37.7225 48.6305 36.7496C47.9229 35.8209 47.3922 34.7374 47.0384 33.4992C46.7288 32.2167 46.5741 30.4699 46.5741 28.2587V0L55.463 0.729687V27.5954C55.463 28.5683 55.5293 29.3864 55.662 30.0498C55.7946 30.6689 56.0158 31.1332 56.3253 31.4428C56.8118 31.885 57.3424 32.1725 57.9174 32.3051C58.4923 32.3936 59.3988 32.4378 60.6371 32.4378L59.9737 40H58.1827Z" fill="#406836"/>
</svg>
