<svg width="42" height="40" viewBox="0 0 42 40" fill="none" xmlns="http://www.w3.org/2000/svg">
<path d="M41.9034 0.240964V5.96386H35.5178V40H28.4094V25.3614H21.2407V26.1446C21.2407 29.2771 20.1564 31.8273 17.9877 33.7952C15.8592 35.7229 12.7467 36.6867 8.65036 36.6867C5.79895 36.6867 3.16843 36.2249 0.758789 35.3012V28.7349C3.36923 30.0602 5.89935 30.7229 8.34915 30.7229C10.0761 30.7229 11.5218 30.2811 12.6865 29.3976C13.8512 28.5141 14.4335 27.1084 14.4335 25.1807C14.4335 22.0482 12.2849 20.4819 7.9877 20.4819H5.69855V14.4578H7.56602C11.2608 14.4578 13.1082 13.0321 13.1082 10.1807C13.1082 7.4498 11.5218 6.08434 8.34915 6.08434C6.2608 6.08434 4.2126 6.56627 2.20457 7.53012V1.14458C4.17244 0.381526 6.3612 0 8.77084 0C12.4255 0 15.2367 0.843373 17.2046 2.53012C19.2126 4.17671 20.2166 6.44578 20.2166 9.33735C20.2166 11.4257 19.6745 13.1727 18.5901 14.5783C17.5459 15.9839 16.0801 16.9478 14.1925 17.4699C15.9194 17.7108 17.4455 18.4137 18.7708 19.5783H28.4094V5.96386H23.4696V0.240964H41.9034Z" fill="#406836"/>
</svg>
