<svg width="63" height="40" viewBox="0 0 63 40" fill="none" xmlns="http://www.w3.org/2000/svg">
<path d="M31.1759 30.9565C37.9932 30.9565 43.257 29.8203 46.9672 27.5478C50.6773 25.2754 52.5324 21.4029 52.5324 15.9304C52.5324 14.5855 52.3469 13.3101 51.9759 12.1043C51.6048 10.8522 51.0019 9.83188 50.1672 9.04348C49.3788 8.25507 48.3353 7.86087 47.0367 7.86087C46.2019 7.86087 45.4367 8.13913 44.7411 8.69565C44.0918 9.25217 43.7672 10.2029 43.7672 11.5478C43.7672 13.1246 44.3005 14.3768 45.3672 15.3043C46.4802 16.1855 47.6628 16.8812 48.915 17.3913V24.6261H28.8802V17.0435H38.2715C37.2512 16.1159 36.4396 15.0261 35.8367 13.7739C35.2338 12.4754 34.9324 11.2 34.9324 9.94783C34.9324 8.09275 35.3266 6.42319 36.115 4.93913C36.9034 3.45507 38.1556 2.27246 39.8715 1.3913C41.6338 0.463768 43.9527 0 46.828 0C50.1672 0 53.0193 0.695652 55.3846 2.08695C57.7962 3.47826 59.628 5.4029 60.8802 7.86087C62.1324 10.2725 62.7585 13.0319 62.7585 16.1391C62.7585 21.7507 61.4831 26.3188 58.9324 29.8435C56.3817 33.3217 52.7411 35.8957 48.0106 37.5652C43.3266 39.1884 37.6918 40 31.1063 40C24.3817 40 18.7469 39.0493 14.2019 37.1478C9.70339 35.2 6.31788 32.5333 4.04541 29.1478C1.77295 25.7623 0.636719 21.8899 0.636719 17.5304C0.636719 13.7739 1.35556 10.5971 2.79324 8C4.2773 5.4029 6.29469 3.43188 8.84542 2.08695C11.3961 0.695652 14.2947 0 17.5411 0C21.1585 0 24.0106 1.06667 26.0976 3.2C28.1845 5.33333 29.228 8.06957 29.228 11.4087C29.228 14.7942 28.1382 17.4841 25.9585 19.4783C23.7788 21.4725 20.5556 22.4696 16.2889 22.4696C15.315 22.4696 14.3874 22.4 13.5063 22.2609C12.6251 22.0754 11.8135 21.8435 11.0715 21.5652C11.6744 23.1884 12.7643 24.7188 14.3411 26.1565C15.9179 27.5942 18.0744 28.7536 20.8106 29.6348C23.5469 30.5159 27.0019 30.9565 31.1759 30.9565ZM17.0541 7.44348C13.4831 7.44348 11.3266 9.66957 10.5845 14.1217C11.0947 14.4 11.6512 14.6319 12.2541 14.8174C12.857 14.9565 13.5063 15.0261 14.2019 15.0261C16.3816 15.0261 17.9585 14.6319 18.9324 13.8435C19.9527 13.0551 20.4628 12.0812 20.4628 10.9217C20.4628 9.8087 20.1382 8.95073 19.4889 8.34783C18.8396 7.74493 18.028 7.44348 17.0541 7.44348Z" fill="#406836"/>
</svg>
