<svg width="110" height="40" viewBox="0 0 110 40" fill="none" xmlns="http://www.w3.org/2000/svg">
<path d="M25.9364 0C28.6213 0 31.42 0.250285 34.3324 0.750856C37.2903 1.20592 40.0661 1.97952 42.66 3.07167C43.1151 3.2537 43.5246 3.48123 43.8887 3.75427C44.2527 4.0273 44.6395 4.27759 45.0491 4.50512C46.5053 5.0512 47.825 5.77929 49.0081 6.68942C50.1913 7.55404 51.1469 8.57793 51.875 9.76109C52.6031 10.8987 52.9672 12.2184 52.9672 13.7201C52.9672 14.9033 52.7624 15.9727 52.3528 16.9283C51.9888 17.884 51.3517 18.7713 50.4416 19.5904C49.5769 20.364 48.4165 21.0921 46.9603 21.7747L46.8238 21.0921C48.9171 21.9113 50.5781 23.0262 51.8068 24.4369C53.0809 25.8476 53.718 27.6223 53.718 29.7611C53.718 31.5813 53.2402 33.2651 52.2846 34.8123C51.3289 36.3595 49.7362 37.6109 47.5064 38.5666C45.3221 39.5222 42.3415 40 38.5644 40C34.3324 40 30.8966 39.2491 28.2573 37.7474C25.6634 36.2002 23.7521 34.1524 22.5235 31.6041C21.3403 29.0102 20.7487 26.1206 20.7487 22.9352C20.7487 20.3413 21.1583 17.8612 21.9774 15.4949C22.842 13.1286 24.1845 10.9443 26.0047 8.94198C27.825 6.8942 30.214 5.0967 33.1719 3.54949C33.445 3.41297 33.6953 3.27645 33.9228 3.13993C34.1958 2.95791 34.4916 2.82139 34.8102 2.73038C36.6759 1.86576 38.792 1.20592 41.1583 0.750856C43.5701 0.250285 46.0957 0 48.7351 0C51.875 0 54.5371 0.295791 56.7214 0.887373C58.9057 1.47895 60.7942 2.29807 62.387 3.34471C63.9797 4.34585 65.4359 5.52901 66.7556 6.8942L70.9194 24.1638V39.1809H60.817V22.116C60.817 18.6576 60.544 15.9727 59.9979 14.0614C59.4973 12.1047 58.4734 10.5119 56.9262 9.28328C55.8796 8.46416 54.6964 7.87258 53.3767 7.50853C52.057 7.09898 50.4643 6.8942 48.5986 6.8942C47.1879 6.8942 45.8454 6.98521 44.5713 7.16724C43.2971 7.34926 42.2049 7.55404 41.2948 7.78157C39.247 8.32765 37.495 9.16951 36.0388 10.3072C34.6281 11.3993 33.4905 12.6735 32.6259 14.1297C31.7612 15.5404 31.1242 16.9966 30.7146 18.4983C30.3506 20 30.1685 21.4334 30.1685 22.7986C30.1685 26.4391 30.8511 29.0557 32.2163 30.6485C33.627 32.1957 35.6293 32.9693 38.2231 32.9693C40.1799 32.9693 41.6361 32.6507 42.5917 32.0136C43.5474 31.3311 44.0252 30.3527 44.0252 29.0785C44.0252 27.8953 43.5019 26.9625 42.4552 26.2799C41.4086 25.5973 39.8159 25.256 37.6771 25.256H35.8341V18.157H37.131C39.4063 18.157 40.999 17.7702 41.9091 16.9966C42.8193 16.1775 43.2743 15.1308 43.2743 13.8567C43.2743 12.537 42.66 11.3311 41.4313 10.2389C40.2027 9.14676 37.9729 8.30489 34.7419 7.71331C33.6498 7.48578 32.3983 7.30376 30.9876 7.16724C29.6225 6.98521 28.1435 6.8942 26.5508 6.8942C23.0013 6.8942 20.0889 7.46303 17.8136 8.60069C15.5383 9.69283 13.8545 11.24 12.7624 13.2423C11.6702 15.1991 11.1242 17.4516 11.1242 20C11.1242 22.0933 11.3744 23.9818 11.875 25.6655C12.4211 27.3493 13.1947 28.9192 14.1958 30.3754C15.2425 31.8316 16.5394 33.3106 18.0866 34.8123L11.3972 40C9.34942 38.3163 7.52917 36.5415 5.93645 34.6758C4.38924 32.7645 3.16057 30.6257 2.25044 28.2594C1.34032 25.8476 0.885254 23.0944 0.885254 20C0.885254 17.5427 1.31756 15.1308 2.18218 12.7645C3.0468 10.3982 4.43474 8.25939 6.346 6.34812C8.25727 4.39135 10.8284 2.84414 14.0593 1.70649C17.2903 0.568829 21.2493 0 25.9364 0ZM92.4893 40C88.9399 40 86.073 39.3174 83.8887 37.9522C81.7044 36.587 80.0889 34.7895 79.0423 32.5597C78.0411 30.2844 77.5406 27.8043 77.5406 25.1195C77.5406 20.9784 78.701 17.6337 81.0218 15.0853C83.3426 12.4915 86.7101 11.1945 91.1242 11.1945C93.8545 11.1945 96.2436 11.8771 98.2914 13.2423C100.385 14.6075 102.046 16.3595 103.274 18.4983C104.549 20.6371 105.254 22.8896 105.39 25.256L101.636 25.0512C101.363 23.9135 100.863 22.8214 100.134 21.7747C99.4063 20.6826 98.4962 19.7952 97.404 19.1126C96.3119 18.3845 95.0377 18.0205 93.5815 18.0205C91.3517 18.0205 89.7362 18.6803 88.7351 20C87.7795 21.3197 87.3016 23.1172 87.3016 25.3925C87.3016 26.8487 87.4837 28.1456 87.8477 29.2833C88.2573 30.4209 88.8716 31.3083 89.6907 31.9454C90.5553 32.537 91.6475 32.8328 92.9672 32.8328C94.2868 32.8328 95.4018 32.4915 96.3119 31.8089C97.2675 31.0808 97.9956 29.9886 98.4962 28.5324C98.9967 27.0762 99.247 25.1877 99.247 22.8669C99.247 22.2298 99.2015 21.5017 99.1105 20.6826C99.065 19.818 98.974 18.9989 98.8375 18.2253C98.792 17.9977 98.8147 17.7702 98.9057 17.5427C98.9967 17.2696 98.9967 17.0421 98.9057 16.8601C98.6327 15.1763 97.8818 13.6291 96.6532 12.2184C95.47 10.7622 93.809 9.57907 91.6702 8.66894C89.5314 7.75882 86.8693 7.30375 83.6839 7.30375C81.6816 7.30375 80.0206 7.46303 78.701 7.78157C77.3813 8.10011 76.1299 8.71445 74.9467 9.62457C74.1276 10.2617 73.3995 11.0808 72.7624 12.0819C72.1708 13.0375 71.7157 14.3345 71.3972 15.9727C71.0787 17.6109 70.9194 19.7952 70.9194 22.5256V24.7782L64.9808 7.03072C66.3005 5.75654 67.7794 4.59613 69.4177 3.54949C71.1014 2.45734 73.1037 1.59272 75.4245 0.955631C77.7908 0.318544 80.6805 0 84.0934 0C88.1435 0 91.7157 0.591582 94.8102 1.77475C97.9501 2.95791 100.567 4.61889 102.66 6.75768C104.799 8.85097 106.392 11.2856 107.438 14.0614C108.53 16.8373 109.076 19.818 109.076 23.0034C109.076 26.917 108.394 30.1251 107.029 32.628C105.709 35.1308 103.798 36.9966 101.295 38.2253C98.8375 39.4084 95.9023 40 92.4893 40Z" fill="#406836"/>
</svg>
