<svg width="43" height="40" viewBox="0 0 43 40" fill="none" xmlns="http://www.w3.org/2000/svg">
<path d="M42.8851 0.240964V5.96386H36.3133V40H28.9976V25.3614H21.6198V26.1446C21.6198 29.2771 20.5039 31.8273 18.2719 33.7952C16.0813 35.7229 12.8781 36.6867 8.66226 36.6867C5.72769 36.6867 3.02044 36.2249 0.540527 35.3012V28.7349C3.2271 30.0602 5.83102 30.7229 8.35226 30.7229C10.1295 30.7229 11.6175 30.2811 12.8161 29.3976C14.0147 28.5141 14.6141 27.1084 14.6141 25.1807C14.6141 22.0482 12.4028 20.4819 7.98028 20.4819H5.62436V14.4578H7.54629C11.3488 14.4578 13.2501 13.0321 13.2501 10.1807C13.2501 7.4498 11.6175 6.08434 8.35226 6.08434C6.203 6.08434 4.09507 6.56627 2.02848 7.53012V1.14458C4.05374 0.381526 6.30633 0 8.78625 0C12.5475 0 15.4407 0.843373 17.466 2.53012C19.5326 4.17671 20.5659 6.44578 20.5659 9.33735C20.5659 11.4257 20.0079 13.1727 18.8919 14.5783C17.8173 15.9839 16.3087 16.9478 14.3661 17.4699C16.1433 17.7108 17.714 18.4137 19.0779 19.5783H28.9976V5.96386H23.9137V0.240964H42.8851Z" fill="#406836"/>
</svg>
