<svg width="8" height="40" viewBox="0 0 8 40" fill="none" xmlns="http://www.w3.org/2000/svg">
<path d="M1.49918 40L0.285645 39.72C0.41011 39.1287 0.581249 38.0086 0.799063 36.3594C1.01688 34.6791 1.18802 32.2676 1.31248 29.1249L1.91925 15.7293C2.01259 13.9868 2.12151 12.4776 2.24598 11.2019C2.40156 9.9261 2.61937 8.72812 2.89942 7.60794C3.17946 6.48775 3.55286 5.33645 4.0196 4.15403C4.51746 2.94049 5.13979 1.55582 5.88658 0L7.05344 0.373396C6.83563 1.08907 6.60226 2.24037 6.35333 3.82731C6.1044 5.38312 5.90214 7.65461 5.74656 10.6418L4.99976 24.5041C4.8753 27.1801 4.50191 29.8561 3.87958 32.5321C3.28837 35.2081 2.4949 37.6974 1.49918 40Z" fill="#406836"/>
</svg>
