<svg width="51" height="40" viewBox="0 0 51 40" fill="none" xmlns="http://www.w3.org/2000/svg">
<path d="M36.6274 40V21.5758L29.4153 25.7576V33.0303H23.6577L21.8396 29.8788C20.7083 27.9798 20.1426 26.4444 20.1426 25.2727C20.1426 23.6162 21.0315 22.303 22.8093 21.3333V16.0606C22.8093 14.9697 22.6678 14.303 22.385 14.0606C22.1022 13.8182 21.4961 13.9394 20.5668 14.4242L14.2032 17.8182V24.9091H8.02138L6.2032 21.7576C5.03148 19.8182 4.44562 18.2828 4.44562 17.1515C4.44562 15.495 5.35471 14.1818 7.1729 13.2121V9.0303C7.1729 6.84849 6.2436 5.75758 4.38502 5.75758H0.627441V0H5.90017C11.4355 0 14.2032 2.72727 14.2032 8.18182V10.9091L19.6577 8.18182C22.4456 6.76768 24.7689 6.60606 26.6274 7.69697C28.486 8.78788 29.4153 10.9495 29.4153 14.1818V18.6061L36.6274 14.4242V0H50.1426V5.75758H43.7184V40H36.6274Z" fill="#406836"/>
</svg>
