<svg width="42" height="40" viewBox="0 0 42 40" fill="none" xmlns="http://www.w3.org/2000/svg">
<path d="M41.6895 0.240964V5.96386H35.304V40H28.1955V25.3614H21.0268V26.1446C21.0268 29.2771 19.9425 31.8273 17.7738 33.7952C15.6453 35.7229 12.5329 36.6867 8.43649 36.6867C5.58508 36.6867 2.95456 36.2249 0.544922 35.3012V28.7349C3.15536 30.0602 5.68548 30.7229 8.13528 30.7229C9.86219 30.7229 11.308 30.2811 12.4726 29.3976C13.6373 28.5141 14.2196 27.1084 14.2196 25.1807C14.2196 22.0482 12.071 20.4819 7.77384 20.4819H5.48468V14.4578H7.35215C11.0469 14.4578 12.8943 13.0321 12.8943 10.1807C12.8943 7.4498 11.308 6.08434 8.13528 6.08434C6.04693 6.08434 3.99874 6.56627 1.9907 7.53012V1.14458C3.95858 0.381526 6.14733 0 8.55697 0C12.2116 0 15.0228 0.843373 16.9907 2.53012C18.9987 4.17671 20.0028 6.44578 20.0028 9.33735C20.0028 11.4257 19.4606 13.1727 18.3762 14.5783C17.3321 15.9839 15.8662 16.9478 13.9787 17.4699C15.7056 17.7108 17.2317 18.4137 18.557 19.5783H28.1955V5.96386H23.2558V0.240964H41.6895Z" fill="#406836"/>
</svg>
