<svg width="49" height="40" viewBox="0 0 49 40" fill="none" xmlns="http://www.w3.org/2000/svg">
<path d="M21.7108 40L23.1257 32.381C25.7017 32.381 27.8242 32.3447 29.4931 32.2721C31.1983 32.1633 32.5407 31.9819 33.5203 31.7279C34.5362 31.4739 35.2437 31.1293 35.6427 30.6939C36.0781 30.2222 36.2958 29.6417 36.2958 28.9524C36.2958 28.517 36.06 27.8277 35.5883 26.8844C35.153 25.9048 34.1915 24.7256 32.704 23.3469C31.9058 22.6213 31.035 21.8594 30.0917 21.0612C29.1847 20.2268 28.3139 19.4467 27.4795 18.7211C26.645 17.9592 25.9557 17.288 25.4115 16.7075C24.8672 16.127 24.5951 15.7098 24.5951 15.4558C24.5951 14.9116 24.6314 14.3129 24.704 13.6599C24.7765 13.0068 24.8854 12.4082 25.0305 11.8639C25.2119 11.3197 25.4477 10.9206 25.738 10.6667C26.3548 10.0862 27.2618 9.41497 28.4591 8.65306C29.6926 7.85488 31.162 7.00227 32.8672 6.09524C34.5725 5.15193 36.4772 4.17234 38.5815 3.15646C40.7221 2.10431 43.0078 1.05215 45.4387 0L48.5407 6.63946C46.5452 7.51021 44.6586 8.36281 42.8808 9.19728C41.1031 9.99547 39.4341 10.7937 37.874 11.5918C36.3502 12.3537 34.9353 13.1156 33.6291 13.8776C32.3593 14.6032 31.2346 15.3288 30.255 16.0544L30.9625 12.0272C34.0464 14.3855 36.4954 16.5079 38.3094 18.3946C40.1598 20.2812 41.5384 21.9683 42.4455 23.4558C43.3525 24.907 43.9511 26.2132 44.2414 27.3741C44.5316 28.4989 44.6768 29.4966 44.6768 30.3673C44.6768 31.7823 44.3321 33.034 43.6427 34.1225C42.9897 35.1746 42.0101 36.0816 40.704 36.8435C39.4341 37.5692 37.874 38.1678 36.0237 38.6395C34.1734 39.1111 32.0509 39.4558 29.6564 39.6735C27.2618 39.8912 24.6133 40 21.7108 40ZM21.7108 40C17.7924 40 14.4727 39.6916 11.7516 39.0748C9.06678 38.4943 6.87177 37.6599 5.16656 36.5714C3.49762 35.4467 2.2822 34.1406 1.5203 32.6531C0.758394 31.1655 0.377441 29.5329 0.377441 27.7551C0.377441 26.5941 0.468144 25.4331 0.64955 24.2721C0.867237 23.0748 1.12121 21.9138 1.41146 20.7891C1.73799 19.6644 2.02824 18.6485 2.2822 17.7415L9.08492 19.3197C8.9398 19.9728 8.77653 20.6803 8.59513 21.4422C8.41372 22.2041 8.2686 22.9478 8.15975 23.6735C8.05091 24.3628 7.99649 24.9977 7.99649 25.5782C7.99649 26.9206 8.46814 28.1179 9.41146 29.1701C10.391 30.1859 11.9874 30.9841 14.2006 31.5646C16.4137 32.1088 19.3888 32.381 23.1257 32.381L24.2142 38.2585L21.7108 40Z" fill="#406836"/>
</svg>
