<svg width="62" height="40" viewBox="0 0 62 40" fill="none" xmlns="http://www.w3.org/2000/svg">
<path d="M17.989 39.2857C14.1429 39.2857 10.8828 38.8095 8.20879 37.8571C5.53479 36.9048 3.50183 35.5861 2.10988 33.9011C0.717943 32.2161 0.0219727 30.2747 0.0219727 28.0769C0.0219727 27.0147 0.223438 26.0073 0.626368 25.0549C1.06593 24.1026 1.78021 23.2784 2.76923 22.5824C3.28205 22.2161 3.90476 21.9231 4.63736 21.7033C5.36996 21.4469 6.24908 21.2637 7.27472 21.1538C8.33699 21.044 9.61904 20.989 11.1209 20.989H53.5934L53.5385 26.8132H11.7253C11.1392 26.8132 10.6264 26.8315 10.1868 26.8681C9.78388 26.9048 9.45421 26.978 9.1978 27.0879C8.94139 27.1612 8.72161 27.2711 8.53846 27.4176C8.13553 27.8205 7.93406 28.2967 7.93406 28.8462C7.93406 30.2015 8.81318 31.3004 10.5714 32.1429C12.3297 32.9853 15.1136 33.4066 18.9231 33.4066H19.5824C23.282 33.4066 26.4139 32.9853 28.978 32.1429C31.5421 31.3004 33.6117 30.1465 35.1868 28.6813C36.7985 27.2161 37.989 25.5861 38.7582 23.7912L38.9231 22.2527C39.1062 21.5568 39.2161 20.8608 39.2527 20.1648C39.326 19.4322 39.3626 18.7546 39.3626 18.1319C39.3626 16.0806 39.0696 14.1941 38.4835 12.4725C37.8974 10.7143 36.9451 9.24908 35.6264 8.07692C34.3443 6.86813 32.641 6.08059 30.5165 5.71428C30.1136 5.64102 29.674 5.60439 29.1978 5.60439C28.7582 5.56776 28.337 5.54945 27.9341 5.54945C26.9084 5.54945 25.956 5.67765 25.0769 5.93406C24.1978 6.15385 23.4835 6.55678 22.9341 7.14286C22.3846 7.72894 22.1099 8.57143 22.1099 9.67033C22.1099 10.8059 22.4212 11.7033 23.044 12.3626C23.6667 13.022 24.5458 13.3516 25.6813 13.3516C26.6337 13.3516 27.4579 13.0586 28.1538 12.4725C28.8498 11.8498 29.1978 10.7326 29.1978 9.12088C29.1978 7.72894 28.8681 6.4652 28.2088 5.32967C27.5861 4.15751 26.8718 3.07692 26.0659 2.08791L31.8352 1.20879C32.4579 1.75824 33.044 2.4359 33.5934 3.24176C34.1795 4.04762 34.6557 5 35.022 6.0989C35.4249 7.16117 35.6264 8.42491 35.6264 9.89011C35.6264 11.1722 35.4249 12.3626 35.022 13.4615C34.6557 14.5604 34.0513 15.5311 33.2088 16.3736C32.4029 17.2161 31.3407 17.8755 30.022 18.3516C28.7033 18.7912 27.0916 19.011 25.1868 19.011C23.3187 19.011 21.5788 18.6813 19.967 18.022C18.3919 17.3626 17.1099 16.3736 16.1209 15.0549C15.1685 13.6996 14.6923 12.0147 14.6923 10C14.6923 7.65568 15.2784 5.75091 16.4505 4.28571C17.6593 2.82051 19.2711 1.73993 21.2857 1.04396C23.3004 0.347985 25.5714 0 28.0989 0C31.359 0 34.1795 0.494505 36.5604 1.48351C38.9414 2.47253 40.9194 3.82784 42.4945 5.54945C44.1062 7.23443 45.2967 9.15751 46.0659 11.3187C46.8352 13.4432 47.2198 15.6593 47.2198 17.967C47.2198 18.7729 47.1648 19.5604 47.0549 20.3297C46.9817 21.0623 46.8718 21.7949 46.7253 22.5275V24.5055C45.6264 27.5824 43.7949 30.2198 41.2308 32.4176C38.6667 34.6154 35.4982 36.3004 31.7253 37.4725C27.9524 38.6813 23.7033 39.2857 18.978 39.2857H17.989ZM53.0989 40V0.659339H61.2857V40H53.0989Z" fill="#406836"/>
</svg>
