<svg width="64" height="40" viewBox="0 0 64 40" fill="none" xmlns="http://www.w3.org/2000/svg">
<path d="M63.1651 0V7.07396H56.9914V40H48.5027C47.3023 37.7278 45.6088 35.7771 43.4223 34.1479C41.2787 32.4759 39.1994 31.104 37.1844 30.0322L40.9143 24.5659C42.5434 25.5091 44.0225 26.5166 45.3516 27.5884C46.7235 28.6174 47.8382 29.6249 48.6956 30.6109C48.6528 30.1393 48.6099 29.6677 48.567 29.1961C48.567 28.7245 48.5456 28.2315 48.5027 27.717C48.5027 27.1597 48.5027 26.6024 48.5027 26.045V7.07396H0.142578V0H63.1651ZM26.3805 34.7267C22.865 34.7267 19.5638 34.0407 16.477 32.6688C13.433 31.2969 10.6678 28.9818 8.18116 25.7235C5.73743 22.4652 3.59381 18.0493 1.7503 12.4759L9.78888 10.2251C11.1608 14.2122 12.597 17.4705 14.0976 20C15.5981 22.5295 17.313 24.3944 19.2423 25.5949C21.1715 26.7524 23.4223 27.3312 25.9947 27.3312C28.0097 27.3312 29.6603 27.074 30.9464 26.5595C32.2755 26.045 33.2615 25.2947 33.9046 24.3087C34.5477 23.3226 34.8693 22.1651 34.8693 20.836C34.8693 19.2069 34.4191 17.9421 33.5188 17.0418C32.6613 16.0986 31.5466 15.627 30.1747 15.627C29.2315 15.627 28.5027 15.8628 27.9882 16.3344C27.4738 16.806 27.2165 17.4277 27.2165 18.1994C27.2165 18.5423 27.2594 18.9282 27.3451 19.3569C27.4309 19.7428 27.5381 20.1072 27.6667 20.4502L19.6924 21.6077C19.3494 20.7931 19.0922 20 18.9207 19.2283C18.7492 18.4566 18.6635 17.7921 18.6635 17.2347C18.6635 15.134 19.1565 13.4834 20.1426 12.283C21.1286 11.0397 22.4148 10.1393 24.0011 9.58199C25.6303 9.02465 27.3237 8.74598 29.0815 8.74598C32.0397 8.74598 34.5906 9.32476 36.7342 10.4823C38.8778 11.597 40.507 13.1404 41.6217 15.1125C42.7792 17.0847 43.358 19.314 43.358 21.8006C43.358 24.1158 42.7792 26.2594 41.6217 28.2315C40.4641 30.2036 38.6206 31.7899 36.0911 32.9904C33.6045 34.1479 30.3677 34.7267 26.3805 34.7267ZM22.3291 12.4759C22.1576 11.0611 21.5359 9.83923 20.4641 8.81029C19.3923 7.78135 17.8489 7.03108 15.8339 6.55948L20.657 3.72991L23.6152 4.4373C26.0161 5.42337 27.7524 6.51661 28.8242 7.71704C29.8961 8.91747 30.5391 10.4394 30.7535 12.283L22.3291 12.4759Z" fill="#406836"/>
</svg>
