<svg width="42" height="40" viewBox="0 0 42 40" fill="none" xmlns="http://www.w3.org/2000/svg">
<path d="M41.2208 0.240964V5.96386H34.8352V40H27.7268V25.3614H20.5581V26.1446C20.5581 29.2771 19.4738 31.8273 17.3051 33.7952C15.1766 35.7229 12.0641 36.6867 7.96774 36.6867C5.11633 36.6867 2.48581 36.2249 0.0761719 35.3012V28.7349C2.68661 30.0602 5.21673 30.7229 7.66653 30.7229C9.39344 30.7229 10.8392 30.2811 12.0039 29.3976C13.1685 28.5141 13.7509 27.1084 13.7509 25.1807C13.7509 22.0482 11.6023 20.4819 7.30509 20.4819H5.01593V14.4578H6.8834C10.5782 14.4578 12.4256 13.0321 12.4256 10.1807C12.4256 7.4498 10.8392 6.08434 7.66653 6.08434C5.57818 6.08434 3.52999 6.56627 1.52195 7.53012V1.14458C3.48983 0.381526 5.67858 0 8.08822 0C11.7428 0 14.5541 0.843373 16.522 2.53012C18.53 4.17671 19.534 6.44578 19.534 9.33735C19.534 11.4257 18.9918 13.1727 17.9075 14.5783C16.8633 15.9839 15.3975 16.9478 13.5099 17.4699C15.2368 17.7108 16.7629 18.4137 18.0882 19.5783H27.7268V5.96386H22.787V0.240964H41.2208Z" fill="#406836"/>
</svg>
