<svg width="44" height="40" viewBox="0 0 44 40" fill="none" xmlns="http://www.w3.org/2000/svg">
<path d="M35.0739 39.2801L35.3331 30.6983L35.0739 29.3737V0.431965H43.0221V39.2801H35.0739ZM17.9105 40C12.0933 40 7.76409 39.0401 4.92271 37.1202C2.10054 35.1812 0.689453 32.3782 0.689453 28.7113V28.1929C0.689453 26.2539 1.05422 24.6124 1.78377 23.2685C2.53251 21.9246 3.71321 20.8111 5.32588 19.928C6.93855 19.0449 9.07918 18.3441 11.7478 17.8258L18.1985 16.5875C19.5999 16.3187 20.6751 15.9731 21.4238 15.5508C22.1917 15.1092 22.7197 14.562 23.0077 13.9093C23.2956 13.2373 23.4396 12.4022 23.4396 11.4039V9.15767C23.4396 8.27454 23.286 7.60259 22.9789 7.14183C22.6717 6.66187 22.1629 6.42189 21.4526 6.42189C20.7614 6.42189 20.2527 6.66187 19.9263 7.14183C19.5999 7.60259 19.4368 8.26494 19.4368 9.12887L19.408 13.6501H12.5253L12.4965 9.12887C12.4965 8.26494 12.3333 7.60259 12.0069 7.14183C11.6806 6.66187 11.1814 6.42189 10.5095 6.42189C9.79912 6.42189 9.29037 6.65227 8.98319 7.11303C8.67601 7.57379 8.52243 8.22654 8.52243 9.07128V11.0871C8.52243 11.8167 8.58002 12.5174 8.69521 13.1893C8.8296 13.8421 9.02159 14.5332 9.27117 15.2628L1.87016 14.8884C1.58218 14.1973 1.3614 13.4581 1.20781 12.671C1.05422 11.8647 0.97743 11.0199 0.97743 10.1368V8.58171C0.97743 5.70194 1.67817 3.55172 3.07966 2.13103C4.48115 0.710343 6.48739 0 9.09838 0C11.0758 0 12.6117 0.412767 13.706 1.2383C14.8003 2.06383 15.5299 3.18694 15.8946 4.60763H16.0962C16.461 3.20614 17.2385 2.09263 18.4288 1.2671C19.6191 0.422366 21.2126 0 23.2092 0C25.8778 0 27.8553 0.748741 29.1416 2.24622C30.4471 3.7437 31.0998 5.98992 31.0998 8.98488V11.5479C31.0998 13.6021 30.7351 15.3972 30.0055 16.933C29.2952 18.4689 28.1337 19.7456 26.521 20.7631C24.9083 21.7807 22.7293 22.5486 19.9839 23.067L14.0228 24.1901C12.8901 24.4204 11.9877 24.6988 11.3158 25.0252C10.6439 25.3324 10.1543 25.7259 9.84712 26.2059C9.55914 26.6859 9.41516 27.281 9.41516 27.9914V28.2505C9.41516 29.6904 10.1927 30.7751 11.7478 31.5047C13.3028 32.215 15.8658 32.5702 19.4368 32.5702C22.1437 32.5702 24.5627 32.2822 26.6938 31.7063C28.8248 31.1111 30.6199 30.2856 32.0789 29.2297C33.5572 28.1545 34.6419 26.9258 35.3331 25.5436L37.4641 32.2246H35.0163C34.3828 33.7989 33.3652 35.1716 31.9638 36.3427C30.5623 37.5138 28.7096 38.4161 26.4058 39.0497C24.1212 39.6832 21.2894 40 17.9105 40Z" fill="#406836"/>
</svg>
