<svg width="67" height="40" viewBox="0 0 67 40" fill="none" xmlns="http://www.w3.org/2000/svg">
<path d="M32.9331 40C27.1519 40 22.1779 39.4271 18.0112 38.2812C13.8966 37.1354 10.5373 35.5469 7.93311 33.5156C5.38102 31.4844 3.47998 29.1406 2.22998 26.4844C1.03206 23.776 0.433105 20.8594 0.433105 17.7344C0.433105 14.0885 1.13623 10.9375 2.54248 8.28125C3.94873 5.625 5.9279 3.59375 8.47998 2.1875C11.0841 0.729166 14.105 0 17.5425 0C20.2508 0 22.5164 0.520833 24.3394 1.5625C26.2144 2.60417 27.6206 3.98437 28.5581 5.70312C29.5477 7.42187 30.0425 9.32292 30.0425 11.4062C30.0425 13.9062 29.5216 16.0156 28.48 17.7344C27.4904 19.401 25.98 20.6771 23.9487 21.5625C21.9175 22.3958 19.4175 22.8125 16.4487 22.8125C13.7404 22.8125 11.3966 22.2135 9.41748 21.0156C7.4904 19.7656 5.9279 18.6198 4.72998 17.5781L6.52686 10.2344C7.15186 11.0156 7.88102 11.7969 8.71436 12.5781C9.59977 13.3594 10.5894 14.0104 11.6831 14.5312C12.7769 15 13.9487 15.2344 15.1987 15.2344C16.7612 15.2344 18.0373 14.9479 19.0269 14.375C20.0685 13.75 20.5894 12.7344 20.5894 11.3281C20.5894 10.4427 20.2769 9.63542 19.6519 8.90625C19.0269 8.125 18.1154 7.73437 16.9175 7.73437C15.0946 7.73437 13.5841 8.51562 12.3862 10.0781C11.1883 11.5885 10.5894 13.4115 10.5894 15.5469V18.6719C10.5894 20.7031 11.2925 22.6302 12.6987 24.4531C14.105 26.276 16.4487 27.7604 19.73 28.9062C23.0633 30 27.5685 30.5469 33.2456 30.5469C41.0581 30.5469 46.7612 29.5052 50.355 27.4219C53.9487 25.2865 55.7456 21.7187 55.7456 16.7187C55.7456 15.1042 55.4852 13.724 54.9644 12.5781C54.4435 11.3802 53.6883 10.4687 52.6987 9.84375C51.7612 9.16667 50.6154 8.82812 49.2612 8.82812C48.0112 8.82812 46.9696 9.19271 46.1362 9.92187C45.3029 10.651 44.8862 11.6927 44.8862 13.0469C44.8862 14.349 45.3289 15.4948 46.2144 16.4844C47.1519 17.4219 48.4279 18.151 50.0425 18.6719V25.625H28.6362V17.6562H40.1206L38.7925 17.9687C37.8029 16.9271 37.0477 15.7292 36.5269 14.375C36.006 12.9687 35.7456 11.7708 35.7456 10.7812C35.7456 8.80208 36.2404 7.00521 37.23 5.39062C38.2716 3.72396 39.7821 2.42187 41.7612 1.48437C43.7404 0.494791 46.1102 0 48.8706 0C52.4644 0 55.5894 0.703124 58.2456 2.10937C60.9019 3.51562 62.9591 5.49479 64.4175 8.04687C65.8758 10.599 66.605 13.5937 66.605 17.0312C66.605 20.7812 65.8498 24.0885 64.3394 26.9531C62.8289 29.7656 60.6154 32.1615 57.6987 34.1406C54.8341 36.0677 51.3185 37.526 47.1519 38.5156C42.9852 39.5052 38.2456 40 32.9331 40Z" fill="#406836"/>
</svg>
